<?xml version="1.0" encoding="utf-8"?>
<!-- Generator: Adobe Illustrator 16.0.0, SVG Export Plug-In . SVG Version: 6.00 Build 0)  -->
<!DOCTYPE svg PUBLIC "-//W3C//DTD SVG 1.1//EN" "http://www.w3.org/Graphics/SVG/1.1/DTD/svg11.dtd">
<svg version="1.1" id="Layer_1" xmlns="http://www.w3.org/2000/svg" xmlns:xlink="http://www.w3.org/1999/xlink" x="0px" y="0px"
	 width="120px" height="24px" viewBox="0 0 120 24" enable-background="new 0 0 120 24" xml:space="preserve">
<path fill="#FFFFFF" d="M16.717-33.961c0,0.357-0.125,0.661-0.375,0.911l-1.821,1.821c-0.25,0.25-0.554,0.375-0.911,0.375
	c-0.357,0-0.661-0.125-0.911-0.375l-3.938-3.938l-3.938,3.938c-0.25,0.25-0.554,0.375-0.911,0.375s-0.661-0.125-0.911-0.375
	L1.181-33.05c-0.25-0.25-0.375-0.554-0.375-0.911s0.125-0.661,0.375-0.911l3.938-3.938l-3.938-3.938
	c-0.25-0.25-0.375-0.554-0.375-0.911s0.125-0.661,0.375-0.911l1.821-1.821c0.25-0.25,0.554-0.375,0.911-0.375
	s0.661,0.125,0.911,0.375l3.938,3.938l3.938-3.938c0.25-0.25,0.554-0.375,0.911-0.375c0.357,0,0.661,0.125,0.911,0.375l1.821,1.821
	c0.25,0.25,0.375,0.553,0.375,0.911s-0.125,0.661-0.375,0.911l-3.938,3.938l3.938,3.938C16.592-34.623,16.717-34.319,16.717-33.961z
	 M57.271-30.6l-8.732-8.718c-0.331-0.331-0.496-0.735-0.496-1.212c0-0.477,0.166-0.881,0.496-1.212l8.732-8.719
	c0.331-0.331,0.735-0.496,1.212-0.496c0.478,0,0.881,0.166,1.212,0.496l1.004,1.004c0.332,0.331,0.496,0.735,0.496,1.212
	c0,0.478-0.164,0.881-0.496,1.212l-6.509,6.509l6.509,6.497c0.332,0.339,0.496,0.745,0.496,1.219c0,0.473-0.164,0.875-0.496,1.205
	L59.695-30.6c-0.331,0.33-0.734,0.496-1.212,0.496C58.006-30.104,57.602-30.27,57.271-30.6L57.271-30.6z M110.053-40.523
	c0,0.464-0.166,0.87-0.496,1.219l-8.732,8.719c-0.33,0.331-0.732,0.496-1.205,0.496s-0.873-0.165-1.205-0.496l-1.018-1.004
	c-0.33-0.349-0.496-0.755-0.496-1.22c0-0.473,0.166-0.875,0.496-1.205l6.51-6.508l-6.51-6.496c-0.33-0.348-0.496-0.754-0.496-1.219
	c0-0.474,0.166-0.875,0.496-1.205l1.018-1.004c0.322-0.339,0.725-0.509,1.205-0.509c0.482,0,0.885,0.17,1.205,0.509l8.732,8.719
	C109.887-41.397,110.053-40.995,110.053-40.523L110.053-40.523z"/>
<g>
	<g>
		<path fill="#DD6D34" d="M24.232,36.608c1.578,4.855-0.15,10.173-4.279,13.173c-4.129,2.998-9.721,2.998-13.85,0
			c-4.129-3-5.856-8.317-4.279-13.173c1.578-4.854,6.101-8.14,11.206-8.14C18.131,28.469,22.654,31.754,24.232,36.608z M13.03,29.53
			c-4.646,0-8.761,2.99-10.196,7.407c-1.436,4.416,0.137,9.255,3.893,11.984c3.758,2.73,8.844,2.73,12.602,0
			c3.758-2.729,5.33-7.568,3.895-11.984C21.789,32.521,17.672,29.53,13.03,29.53z"/>
	</g>
	<path fill-rule="evenodd" clip-rule="evenodd" fill="#DD6D34" d="M14.629,36.863c0.32-0.012,0.64-0.003,0.96-0.003
		c0.038,0,0.079,0,0.13,0v-1.663c-0.17-0.017-0.348-0.042-0.526-0.05c-0.327-0.015-0.657-0.031-0.984-0.023
		c-0.501,0.011-0.975,0.133-1.389,0.43c-0.474,0.342-0.734,0.821-0.834,1.388c-0.042,0.232-0.052,0.476-0.059,0.712
		c-0.008,0.374,0,0.746,0,1.12v0.139h-1.591v1.858h1.582v4.667h1.931v-4.661h1.578c0.078-0.617,0.159-1.229,0.242-1.864
		c-0.128,0-0.242-0.001-0.355,0c-0.447,0.001-1.477,0-1.477,0s0.004-0.92,0.015-1.319C13.867,37.046,14.193,36.879,14.629,36.863z"
		/>
</g>
<g>
	<g>
		<path fill="#DD6D34" d="M76.523,36.608c1.578,4.855-0.15,10.173-4.277,13.172c-4.131,2.999-9.721,2.999-13.852,0
			c-4.129-2.999-5.855-8.316-4.279-13.172c1.578-4.854,6.102-8.14,11.205-8.14S74.945,31.754,76.523,36.608z M65.32,29.53
			c-4.645,0-8.76,2.99-10.195,7.407c-1.434,4.415,0.137,9.255,3.895,11.984s8.844,2.729,12.602,0
			c3.756-2.729,5.33-7.569,3.893-11.984C74.08,32.521,69.963,29.53,65.32,29.53z"/>
	</g>
	<g>
		<path fill="#DD6D34" d="M63.682,39.542c0,0.023-0.002,0.044-0.002,0.064c0,0.495,0.002,1.567,0.002,1.567s2.064,0,2.174,0
			c0,0.163-0.189,0.813-0.799,1.225c-0.355,0.24-0.756,0.353-1.182,0.378c-0.299,0.021-0.592-0.01-0.881-0.103
			c-0.906-0.29-1.584-1.111-1.676-2.111c-0.023-0.247-0.006-0.494,0.049-0.737c0.271-1.183,1.391-2.061,2.676-1.871
			c0.568,0.085,0.895,0.321,1.193,0.576c0.393-0.394,0.781-0.782,1.182-1.184c-0.098-0.07-0.322-0.298-0.721-0.528
			c-0.598-0.345-1.24-0.519-1.928-0.524c-0.129-0.002-0.26,0.006-0.389,0.012c-0.227,0.009-0.451,0.048-0.668,0.104
			c-0.881,0.225-1.609,0.688-2.182,1.39c-0.551,0.678-0.844,1.455-0.898,2.324c-0.025,0.366,0.004,0.732,0.084,1.093
			c0.23,1.007,0.758,1.82,1.592,2.429c0.645,0.474,1.371,0.727,2.17,0.77c0.447,0.026,0.895-0.016,1.33-0.133
			c0.816-0.211,1.49-0.637,1.998-1.314c0.738-0.977,0.916-2.234,0.699-3.425C66.229,39.542,64.957,39.542,63.682,39.542z"/>
		<polygon fill="#DD6D34" points="72.42,39.594 71.043,39.594 71.043,38.218 71.043,38.177 71.004,38.177 69.975,38.177 
			69.934,38.177 69.934,38.218 69.934,39.594 68.557,39.594 68.518,39.594 68.518,39.634 68.518,40.662 68.518,40.703 
			68.557,40.703 69.934,40.703 69.934,42.082 69.934,42.123 69.975,42.123 71.004,42.123 71.043,42.123 71.043,42.082 
			71.043,40.703 72.42,40.703 72.461,40.703 72.461,40.662 72.461,39.634 72.461,39.594 		"/>
	</g>
</g>
<g>
	<g>
		<path fill="#DD6D34" d="M50.379,36.607c1.576,4.856-0.152,10.172-4.279,13.173c-4.131,3-9.721,3-13.852,0
			c-4.129-3.001-5.855-8.316-4.279-13.173c1.578-4.854,6.1-8.14,11.205-8.14C44.277,28.468,48.801,31.753,50.379,36.607z
			 M39.174,29.53c-4.645,0-8.76,2.99-10.195,7.406c-1.436,4.417,0.137,9.256,3.893,11.985c3.76,2.729,8.846,2.729,12.604,0
			s5.328-7.568,3.895-11.985C47.934,32.521,43.816,29.53,39.174,29.53z"/>
	</g>
	<path fill-rule="evenodd" clip-rule="evenodd" fill="#DD6D34" d="M42.184,35.868h-6.021c-0.756,0-1.369,0.614-1.369,1.37v6.021
		c0,0.757,0.613,1.371,1.369,1.371h6.021c0.756,0,1.371-0.614,1.371-1.371v-6.021C43.555,36.482,42.939,35.868,42.184,35.868z
		 M41.049,37.076c0-0.135,0.109-0.244,0.244-0.244h1.059c0.135,0,0.244,0.109,0.244,0.244v1.06c0,0.134-0.109,0.242-0.244,0.242
		h-1.059c-0.135,0-0.244-0.108-0.244-0.242V37.076z M37.559,39.617c0.254-0.646,0.881-1.103,1.615-1.103
		c0.732,0,1.361,0.457,1.613,1.103c0.078,0.194,0.121,0.409,0.121,0.633c0,0.955-0.779,1.734-1.734,1.734
		c-0.957,0-1.734-0.779-1.734-1.734C37.439,40.026,37.48,39.812,37.559,39.617z M42.627,43.26c0,0.245-0.199,0.441-0.443,0.441
		h-6.021c-0.242,0-0.441-0.196-0.441-0.441v-3.643h0.865c-0.049,0.202-0.074,0.415-0.074,0.633c0,1.471,1.191,2.661,2.662,2.661
		s2.662-1.19,2.662-2.661c0-0.218-0.025-0.431-0.076-0.633h0.867V43.26z"/>
</g>
<image overflow="visible" width="103" height="25" xlink:href="icons.png"  transform="matrix(0.9885 0 0 0.9885 116.1406 28.8926)">
</image>
</svg>
